<svg width="512" height="415" viewBox="0 0 512 415" fill="none" xmlns="http://www.w3.org/2000/svg">
    <path d="M89.0869 382.528V334.101H411.788V382.528H89.0869Z" fill="#999999"/>
    <path d="M61.1992 350.037V319.759H457.206V350.037H61.1992Z" fill="#999999"/>
    <path d="M381.51 76.7366V28.1324H445.254V76.7366H381.51Z" fill="#999999"/>
    <path d="M348.841 120.559V56.0189H446.05V120.559H348.841Z" fill="#999999"/>
    <path d="M317.766 146.855V90.2824H449.238V146.855H317.766Z" fill="#999999"/>
    <path d="M152.034 180.32V110.999H478.401V180.32H152.034Z" fill="#999999"/>
    <path d="M131.317 190.677V84.7036H190.28V190.677H131.317Z" fill="#999999"/>
    <path d="M111.397 197.053V48.0522H159.205V197.053H111.397Z" fill="#999999"/>
    <path d="M67.5739 212.987V21.757H125.74V212.987H67.5739Z" fill="#999999"/>
    <path d="M27.7339 313.383L28.5309 307.009H53.2321V322.945L41.0725 318.983L27.7339 313.383Z" fill="#999999"/>
    <path d="M33.3115 328.523L31.0992 307.041L38.889 297.448H478.719V329.32L33.3115 328.523Z" fill="#999999"/>
    <path d="M20.005 312.827V155.912H495.213V312.827H20.005Z" fill="#999999"/>
    <path d="M0 320.203V156.038H32.508V320.203H0Z" fill="black"/>
    <path d="M32.5084 157.663V27.6316H68.2673V157.663H32.5084Z" fill="black"/>
    <path d="M66.642 27.6324V0.000665925H128.407V27.6324H66.642Z" fill="black"/>
    <path d="M125.156 59.4076V24.381H159.269V59.4076H125.156Z" fill="black"/>
    <path d="M159.289 96.1195V58.5138H192.382V96.1195H159.289Z" fill="black"/>
    <path d="M186.921 123.53V92.6472H320.203V123.53H186.921Z" fill="black"/>
    <path d="M316.952 94.2737V58.5139H350.226V94.2737H316.952Z" fill="black"/>
    <path d="M348.855 58.5147V27.6314H381.969V58.5147H348.855Z" fill="black"/>
    <path d="M381.968 30.8827V0H446.984V30.8827H381.968Z" fill="black"/>
    <path d="M443.733 157.663V24.3807H480.842V157.663H443.733Z" fill="black"/>
    <path d="M479.492 318.578V152.788H512V318.578H479.492Z" fill="black"/>
    <path d="M445.359 351.088V315.328H481.119V351.088H445.359Z" fill="black"/>
    <path d="M32.7353 351.843V318.376H64.8071V351.843H32.7353Z" fill="black"/>
    <path d="M64.8062 379.73V347.659H92.6947V379.73H64.8062Z" fill="black"/>
    <path d="M405.812 383.103V347.406H443.74V383.103H405.812Z" fill="black"/>
    <path d="M93.47 414.338V378.641H405.813V414.338H93.47Z" fill="black"/>
    <path d="M126.537 252.03V189.88H187.89V252.03H126.537Z" fill="black"/>
    <path d="M348.841 252.03V189.88H410.194V252.03H348.841Z" fill="black"/>
    <path d="M126.537 226.534V189.88H160.8V226.534H126.537Z" fill="white"/>
    <path d="M348.841 226.534V189.88H383.105V226.534H348.841Z" fill="white"/>
    <path d="M159.205 345.255V282.309H187.093V345.255H159.205Z" fill="black"/>
    <path d="M257.21 345.255V282.309H285.098V345.255H257.21Z" fill="black"/>
    <path d="M352.826 345.255V282.309H380.713V345.255H352.826Z" fill="black"/>
    <path d="M159.205 347.647V318.165H383.104V347.647H159.205Z" fill="black"/>
    <path d="M65.515 319.869V250.707H125.752V319.869H65.515Z" fill="#FF9999"/>
    <path d="M413.554 319.869V250.707H478.997V319.869H413.554Z" fill="#FF9999"/>
    <path d="M286.386 250.708V222.447H316.134V250.708H286.386Z" fill="black"/>
</svg>
