<svg width="800" height="800" viewBox="0 0 800 800" fill="none" xmlns="http://www.w3.org/2000/svg">
<path d="M400 787.5C523.927 787.5 699.359 759.82 737.414 625.041C774.905 492.261 672.961 397.436 649.937 350.109C631.192 311.578 624.944 288.667 624.944 237.639C624.944 62.6828 400 62.4875 400 62.4875C400 62.4875 175.056 62.6828 175.056 237.639C175.056 288.667 168.808 311.578 150.063 350.109C127.039 397.436 25.0953 492.262 62.5859 625.041C100.641 759.82 276.073 787.5 400 787.5Z" fill="#C39B6E"/>
<path d="M524.969 662.533C524.969 696.898 496.85 725.016 462.484 725.016H337.516C303.148 725.016 275.031 696.898 275.031 662.533V387.6C275.031 353.234 301.137 314.673 333.047 301.909L341.984 298.334C373.892 285.57 426.106 285.57 458.016 298.334L466.953 301.909C498.861 314.673 524.969 353.234 524.969 387.6V662.533Z" fill="#C0C0C6"/>
<path d="M521.875 673.022C521.875 736.836 438.463 725 400 725C361.538 725 278.125 736.836 278.125 673.022C267.072 616.869 307.331 641.133 334.375 632.812C367.623 622.581 400 610.938 400 610.938C400 610.938 429.716 621.006 464.063 632.812C489.186 641.448 529.213 616.573 521.875 673.022Z" fill="#464655"/>
<path d="M400.156 678.125C406.956 678.139 412.5 672.698 412.5 665.9V624.648C412.5 615.795 406.903 608.62 400 608.62C393.097 608.62 387.5 615.795 387.5 624.648V665.9C387.5 672.698 393.045 678.139 399.844 678.125C399.948 678.125 400.052 678.125 400.156 678.125Z" fill="#9E9EA6"/>
<path d="M478.775 378.016H464.752C455.048 378.016 445.478 380.275 436.8 384.614L416.772 394.628C406.214 399.908 393.788 399.908 383.23 394.628L363.202 384.614C354.523 380.275 344.953 378.016 335.25 378.016H321.227C297.536 378.016 276.302 395.755 275.062 419.413C273.741 444.644 293.809 465.516 318.75 465.516H325C362.5 465.516 362.5 515.516 400 515.516C437.5 515.516 437.5 465.516 475 465.516H481.25C506.192 465.516 526.259 444.644 524.937 419.413C523.698 395.755 502.464 378.016 478.775 378.016Z" fill="#9E9EA6"/>
<path d="M212.547 12.5C198.487 12.5 200.05 137.469 200.05 137.469L271.875 92.1875C271.875 92.1875 226.606 12.5 212.547 12.5Z" fill="#878791"/>
<path d="M587.453 12.5C573.394 12.5 526.562 90.625 526.562 90.625L599.95 137.469C599.95 137.469 601.512 12.5 587.453 12.5Z" fill="#878791"/>
<path d="M471.595 290.305L462.658 286.73C445.784 279.98 423.531 276.263 400 276.263C376.469 276.263 354.216 279.978 337.342 286.73L328.405 290.305C291.467 305.08 262.531 347.817 262.531 387.602V662.531C262.531 703.878 296.169 737.517 337.516 737.517H462.483C503.83 737.517 537.467 703.88 537.467 662.531V387.6C537.469 347.817 508.533 305.08 471.595 290.305ZM512.469 662.531C512.469 690.094 490.045 712.517 462.484 712.517H337.516C309.953 712.517 287.531 690.094 287.531 662.531V649.889C342.172 648.675 381.273 639.42 400 623.873C418.727 639.42 457.828 648.675 512.469 649.889V662.531ZM512.469 624.881C436.817 623.089 412.5 605.28 412.5 600.047V562.556C412.5 555.653 406.903 550.056 400 550.056C393.097 550.056 387.5 555.653 387.5 562.556V600.047C387.5 605.28 363.183 623.089 287.531 624.881V387.6C287.531 358.317 310.5 324.391 337.689 313.516L346.627 309.941C360.414 304.425 379.869 301.263 400 301.263C420.131 301.263 439.584 304.425 453.373 309.941L462.311 313.516C489.5 324.391 512.469 358.317 512.469 387.6V624.881Z" fill="black"/>
<path d="M430.033 413.078C420.311 427.881 412.969 437.584 400 437.584C387.031 437.584 379.689 427.881 369.969 413.078C362.125 401.134 353.238 387.597 337.517 387.597C321.656 387.597 308.045 397.142 303.65 411.348C299.434 424.973 304.919 438.981 317.961 447.905C323.658 451.805 331.438 450.345 335.336 444.647C339.234 438.948 337.777 431.17 332.078 427.272C329.373 425.42 326.388 422.437 327.533 418.737C328.447 415.78 331.963 412.597 337.517 412.597C339.745 412.597 346.28 422.55 349.072 426.8C358.989 441.902 372.57 462.584 400.002 462.584C427.433 462.584 441.014 441.902 450.931 426.8C453.722 422.55 460.258 412.597 462.486 412.597C468.041 412.597 471.555 415.78 472.47 418.737C473.614 422.437 470.63 425.42 467.925 427.272C462.228 431.17 460.769 438.95 464.667 444.647C468.566 450.344 476.344 451.802 482.042 447.905C495.084 438.981 500.569 424.973 496.353 411.348C491.958 397.142 478.348 387.597 462.486 387.597C446.764 387.598 437.875 401.134 430.033 413.078Z" fill="black"/>
<path d="M344.655 652.27C338.991 648.33 331.198 649.725 327.255 655.394C323.312 661.061 324.711 668.85 330.378 672.794C351.561 687.53 375.089 687.53 400 687.53C424.911 687.53 448.439 687.53 469.622 672.794C475.289 668.852 476.688 661.061 472.745 655.394C468.802 649.727 461.011 648.33 455.345 652.27C440.598 662.528 422.683 662.528 400 662.528C377.317 662.528 359.4 662.528 344.655 652.27Z" fill="black"/>
<path d="M225.044 225.139C210.559 225.139 200.047 240.908 200.047 262.633C200.047 284.358 210.559 300.127 225.044 300.127C239.528 300.127 250.041 284.358 250.041 262.633C250.041 240.908 239.528 225.139 225.044 225.139Z" fill="black"/>
<path d="M574.956 225.139C560.472 225.139 549.959 240.908 549.959 262.633C549.959 284.358 560.472 300.127 574.956 300.127C589.441 300.127 599.953 284.358 599.953 262.633C599.953 240.908 589.441 225.139 574.956 225.139Z" fill="black"/>
<path d="M742.109 482.647C726.58 441.397 702.992 407.52 684.039 380.302C674.219 366.198 665.738 354.017 661.177 344.644C643.369 308.039 637.444 287.442 637.444 237.641C637.444 202.934 628.983 172.319 612.527 146.327C612.575 136.981 612.597 111.752 611.68 85.8219C609.389 21.1109 603.564 9.99531 598.283 4.65625C595.314 1.65312 591.469 0 587.453 0C577.684 0 567.013 7.42031 541.38 45.3438C533.936 56.3563 527.089 67.2547 522.35 74.975C520.583 74.2438 518.817 73.5109 517.011 72.8063C459.255 50.2969 402.402 49.9875 399.989 49.9859C397.597 49.9875 340.744 50.2969 282.989 72.8063C281.038 73.5672 279.128 74.3563 277.222 75.1484C272.622 67.5266 265.583 56.1297 257.87 44.6078C232.895 7.29844 222.339 0 212.547 0C208.523 0 204.67 1.65625 201.697 4.66406C196.423 9.99688 190.606 21.0437 188.319 85.0312C187.347 112.189 187.431 138.577 187.483 146.311C171.02 172.308 162.556 202.927 162.556 237.639C162.556 287.441 156.631 308.037 138.823 344.642C134.264 354.016 125.781 366.197 115.961 380.3C97.0094 407.519 73.4203 441.395 57.8906 482.645C39.2406 532.181 36.8422 579.87 50.5547 628.438C68.6859 692.647 117.197 739.781 194.745 768.533C264.894 794.541 345.083 800 400 800C454.917 800 535.106 794.541 605.255 768.533C682.802 739.781 731.314 692.647 749.445 628.438C763.158 579.87 760.758 532.181 742.109 482.647ZM582.484 31.8109C585.267 48.8344 586.969 81.8594 587.442 115.942C575.413 104.52 561.286 94.4016 545.075 85.6906C558.25 64.3234 572.928 42.8969 582.484 31.8109ZM217.481 31.8031C227.023 42.9656 241.645 64.6016 254.542 85.9047C238.486 94.5719 224.478 104.622 212.541 115.958C212.989 81.9641 214.684 48.8484 217.481 31.8031ZM725.386 621.645C709.547 677.739 666.206 719.273 596.564 745.092C529.891 769.811 452.87 775 400 775C347.13 775 270.109 769.811 203.436 745.092C133.795 719.273 90.4531 677.739 74.6141 621.645C46.8484 523.309 100.786 445.845 136.477 394.587C146.894 379.627 155.891 366.705 161.303 355.58C179.817 317.523 187.556 292.725 187.556 237.641C187.556 170.948 222.522 123.406 291.481 96.3313C344.908 75.3563 399.475 74.9891 399.989 74.9875C400.528 74.9875 454.498 75.275 507.931 96.1016C510.869 97.2469 513.723 98.4438 516.538 99.6625C517.505 100.961 518.742 102.094 520.227 102.964C522.464 104.28 524.944 104.819 527.353 104.664C554.198 117.978 574.745 135.05 588.914 155.78C589.314 156.544 589.792 157.262 590.336 157.927C605.027 180.367 612.441 206.972 612.441 237.641C612.441 292.725 620.18 317.523 638.694 355.58C644.106 366.705 653.103 379.627 663.52 394.587C699.214 445.845 753.152 523.309 725.386 621.645Z" fill="black"/>
<path d="M73.7419 203V227.032V251.065H100.71V275.097H127.677V299.129H154.645V323.161H181.613H208.581H235.548H262.516H289.484H316.452V299.129H343.419V275.097H370.387V251.065H397.355H424.323V275.097H451.29V299.129H478.258H505.226H532.193H559.161H586.129H613.097H640.064V275.097H667.032V251.065H694V227.032V203H667.032H640.064H613.097H586.129H559.161H532.193H505.226H478.258H451.29H424.323H397.355H370.387H343.419H316.452H289.484H262.516H235.548H208.581H181.613H154.645H127.677H100.71H73.7419Z" fill="black"/>
<path d="M127.677 227.032V251.065H154.645V227.032H127.677ZM154.645 251.065V275.097H181.613V251.065H154.645ZM181.613 251.065H208.581V227.032H181.613V251.065ZM208.581 251.065V275.097H235.548V251.065H208.581ZM235.548 275.097V299.129H262.516V275.097H235.548ZM208.581 275.097H181.613V299.129H208.581V275.097Z" fill="white"/>
<path d="M451.29 227.032H478.258V251.065H505.226V227.032H532.194V251.065H559.161V275.097H532.194V251.065H505.226V275.097H478.258V251.065H451.29V227.032Z" fill="white"/>
</svg>
